<?xml version="1.0" encoding="UTF-8"?>
<svg width="225px" height="119px" viewBox="0 0 225 119" version="1.1" xmlns="http://www.w3.org/2000/svg" xmlns:xlink="http://www.w3.org/1999/xlink">
    <!-- Generator: Sketch 46.2 (44496) - http://www.bohemiancoding.com/sketch -->
    <title>logo-pd</title>
    <desc>Created with Sketch.</desc>
    <defs></defs>
    <g id="Page-1" stroke="none" stroke-width="1" fill="none" fill-rule="evenodd">
        <g id="PD_Material-Papelaria">
            <path d="M2.15228855,96.3143635 L2.15228855,102 L0,102 L0,88 L2.43914786,88 C3.63383252,88 4.53575195,88.0811642 5.14574984,88.2443209 C5.76080996,88.4074775 6.30331154,88.7155703 6.77156718,89.1694274 C7.58995992,89.9553952 8,90.9467582 8,92.1435163 C8,93.4255797 7.5621177,94.4409607 6.6880405,95.1904875 C5.8139633,95.9400142 4.6336216,96.3143635 3.15039021,96.3143635 L2.15228855,96.3143635 Z M2.15228855,94.3564837 L2.95633833,94.3564837 C4.93313647,94.3564837 5.92195739,93.6094416 5.92195739,92.1170137 C5.92195739,90.6717937 4.90276313,89.9487695 2.8643746,89.9487695 L2.15228855,89.9487695 L2.15228855,94.3564837 Z" id="Fill-1" fill="#1A1919"></path>
            <polygon id="Fill-3" fill="#1A1919" points="21 89.9852106 15.1878216 89.9852106 15.1878216 93.3493848 20.8310463 93.3493848 20.8310463 95.3354236 15.1878216 95.3354236 15.1878216 100.013133 21 100.013133 21 102 13 102 13 88 21 88"></polygon>
            <polygon id="Fill-4" fill="#1A1919" points="28.9933094 89.9852106 28.9933094 102 27.0144478 102 27.0144478 89.9852106 24 89.9852106 24 88 32 88 32 89.9852106"></polygon>
            <path d="M41.7028285,96.0336015 L46,102 L43.4379562,102 L39.4725365,96.2688121 L39.0947993,96.2688121 L39.0947993,102 L37,102 L37,88 L39.455292,88 C41.2889599,88 42.6135036,88.3478467 43.4289234,89.0427118 C44.327281,89.8162565 44.777281,90.8374349 44.777281,92.1070752 C44.777281,93.0984382 44.4956204,93.9506626 43.9322993,94.6645764 C43.3681569,95.3776621 42.6258212,95.8340038 41.7028285,96.0336015 L41.7028285,96.0336015 Z M39.0947993,94.4285376 L39.7607664,94.4285376 C41.744708,94.4285376 42.7366788,93.6641032 42.7366788,92.1344061 C42.7366788,90.7016091 41.7718066,89.9852106 39.8412409,89.9852106 L39.0947993,89.9852106 L39.0947993,94.4285376 Z" id="Fill-5" fill="#1A1919"></path>
            <polygon id="Fill-7" fill="#1A1919" points="59 89.9852106 53.1878216 89.9852106 53.1878216 93.3493848 58.8310463 93.3493848 58.8310463 95.3354236 53.1878216 95.3354236 53.1878216 100.013133 59 100.013133 59 102 51 102 51 88 59 88"></polygon>
            <polygon id="Fill-8" fill="#1A1919" points="63 101.191207 63 87 72.9426037 97.1385978 72.9426037 87.9046846 75 87.9046846 75 102 65.0573963 91.8881262 65.0573963 101.191207"></polygon>
            <path d="M91.1108745,99.5726929 L84.9453539,99.5726929 L83.3411428,103 L81,103 L88.1256618,88 L95,103 L92.6213716,103 L91.1108745,99.5726929 Z M90.2248524,97.5705778 L88.0881762,92.7715129 L85.8501187,97.5705778 L90.2248524,97.5705778 Z" id="Fill-9" fill="#1A1919"></path>
            <g id="Group-18" transform="translate(97.000000, 88.000000)" fill="#1A1919">
                <path d="M8.52583222,2.66763158 L6.84764333,3.63631579 C6.53293222,3.10578947 6.23444333,2.76 5.94974333,2.59815789 C5.65449889,2.415 5.27165444,2.32263158 4.80445444,2.32263158 C4.23018778,2.32263158 3.75325444,2.48131579 3.37446556,2.79710526 C2.99648778,3.10894737 2.80668778,3.50052632 2.80668778,3.97263158 C2.80668778,4.62473684 3.30389889,5.14894737 4.29832111,5.54684211 L5.66666556,6.09078947 C6.77951,6.52894737 7.59386556,7.06263158 8.10811,7.69421053 C8.62316556,8.325 8.88028778,9.09947368 8.88028778,10.0152632 C8.88028778,11.2421053 8.46013222,12.2573684 7.61982111,13.0571053 C6.77302111,13.8647368 5.72263222,14.2673684 4.46703222,14.2673684 C3.27713222,14.2673684 2.29406556,13.9255263 1.51864333,13.2394737 C0.755387778,12.5534211 0.278454444,11.5878947 0.0894655556,10.3436842 L2.18537667,9.89368421 C2.27946556,10.6784211 2.44574333,11.2192105 2.68258778,11.5184211 C3.10842111,12.0955263 3.73054333,12.3836842 4.54733222,12.3836842 C5.19297667,12.3836842 5.72831,12.1728947 6.15414333,11.7528947 C6.58078778,11.3321053 6.79329889,10.7984211 6.79329889,10.1534211 C6.79329889,9.89368421 6.75679889,9.65605263 6.68298778,9.43973684 C6.60917667,9.22421053 6.49318778,9.02526316 6.33664333,8.84289474 C6.18009889,8.66289474 5.97732111,8.49236842 5.72831,8.33447368 C5.47929889,8.17578947 5.18324333,8.02421053 4.84014333,7.87973684 L3.51641,7.34447368 C1.64031,6.57157895 0.701854444,5.44263158 0.701854444,3.95526316 C0.701854444,2.95263158 1.09524333,2.11421053 1.88364333,1.44 C2.67042111,0.760263158 3.65024333,0.42 4.82311,0.42 C6.40315444,0.42 7.63766556,1.17 8.52583222,2.66763158" id="Fill-10"></path>
                <path d="M27.8357111,6.60118421 L30.3047333,9.50486842 L30.3850333,9.41802632 C30.6510778,9.13618421 30.9025222,8.85986842 31.1393667,8.58907895 C31.3762111,8.31828947 31.6049444,8.04434211 31.8231333,7.76802632 L33.1736333,9.11644737 C33.0073556,9.34697368 32.7899778,9.61381579 32.5206889,9.91934211 C32.2505889,10.2256579 31.9302,10.5761842 31.5570889,10.9740789 L34.0974889,14.0253947 L31.5214,14.0253947 L30.1538667,12.3919737 C28.8990778,13.6543421 27.5931889,14.2843421 26.2370111,14.2843421 C25.0235889,14.2843421 23.9942889,13.9077632 23.1474889,13.1530263 C22.3177222,12.3919737 21.9040556,11.4532895 21.9040556,10.3346053 C21.9040556,9.00355263 22.5610556,7.8975 23.8750556,7.01565789 L24.7729556,6.41960526 L24.8346,6.37618421 L24.9587,6.28065789 C24.0526889,5.34118421 23.6000889,4.41592105 23.6000889,3.50644737 C23.6000889,2.60723684 23.9018222,1.87539474 24.5061,1.31092105 C25.1209222,0.746447368 25.915,0.463815789 26.8859,0.463815789 C27.8267889,0.463815789 28.6054556,0.736973684 29.2210889,1.28486842 C29.8375333,1.83197368 30.1449444,2.52434211 30.1449444,3.35960526 C30.1449444,3.93513158 29.9762333,4.45697368 29.6388111,4.92355263 C29.3070667,5.39092105 28.7060333,5.94986842 27.8357111,6.60118421 L27.8357111,6.60118421 Z M26.1932111,7.73328947 L26.0780333,7.81065789 C25.2312333,8.38144737 24.6537222,8.83934211 24.3455,9.18513158 C24.0437667,9.53092105 23.8937111,9.89723684 23.8937111,10.2832895 C23.8937111,10.8359211 24.1208222,11.3435526 24.5766667,11.8038158 C25.0503556,12.2475 25.5719,12.4701316 26.1396778,12.4701316 C26.9394333,12.4701316 27.8592333,11.9593421 28.9015111,10.9401316 L26.1932111,7.73328947 Z M26.6368889,5.1825 L26.8056,5.0625 C27.0959778,4.84934211 27.3360667,4.66302632 27.5250556,4.50434211 C27.7148556,4.34644737 27.8511222,4.21302632 27.9338556,4.10328947 C28.1114889,3.88934211 28.1999,3.62644737 28.1999,3.31618421 C28.1999,2.96486842 28.0790444,2.67907895 27.8357111,2.46039474 C27.5931889,2.24171053 27.2679333,2.13197368 26.8591333,2.13197368 C26.4860222,2.13197368 26.1721222,2.24407895 25.9182444,2.46907895 C25.6627444,2.68223684 25.5362111,2.95618421 25.5362111,3.29092105 C25.5362111,3.6825 25.696,4.06776316 26.0155778,4.44828947 L26.5306333,5.05302632 L26.6368889,5.1825 Z" id="Fill-12"></path>
                <path d="M46.8080867,14.0255526 L46.8080867,0.680289474 L49.6859089,0.680289474 C51.0647978,0.680289474 52.15412,0.812921053 52.9530644,1.07818421 C53.8120311,1.33713158 54.5906978,1.77765789 55.2890644,2.39897368 C56.7036422,3.65581579 57.4117422,5.30739474 57.4117422,7.35292105 C57.4117422,9.40476316 56.6744422,11.0634474 55.2006533,12.3313421 C54.46092,12.9652895 53.6846867,13.4058158 52.8743867,13.6537105 C52.1159978,13.9023947 51.0412756,14.0255526 49.65022,14.0255526 L46.8080867,14.0255526 Z M48.8772311,12.1323947 L49.8100089,12.1323947 C50.7395422,12.1323947 51.51172,12.0376579 52.1281644,11.8466053 C52.7429867,11.6452895 53.30022,11.3255526 53.7974311,10.8873947 C54.8153756,9.98344737 55.3247533,8.80476316 55.3247533,7.35292105 C55.3247533,5.88844737 54.8218644,4.70107895 53.8152756,3.79160526 C52.9084533,2.97923684 51.5741756,2.57265789 49.8100089,2.57265789 L48.8772311,2.57265789 L48.8772311,12.1323947 Z" id="Fill-14"></path>
                <path d="M64.8109411,0.680131579 L64.8109411,8.71855263 C64.8109411,9.86565789 65.0031744,10.7032895 65.3884522,11.2330263 C65.9627189,12.0003947 66.7705856,12.3832895 67.8128633,12.3832895 C68.8608189,12.3832895 69.67193,12.0003947 70.2461967,11.2330263 C70.6314744,10.7214474 70.8237078,9.88223684 70.8237078,8.71855263 L70.8237078,0.680131579 L72.8928522,0.680131579 L72.8928522,9.27197368 C72.8928522,10.6780263 72.4426856,11.8361842 71.5431633,12.7456579 C70.5308967,13.7601316 69.2874633,14.2677632 67.8128633,14.2677632 C66.3390744,14.2677632 65.0980744,13.7601316 64.0914856,12.7456579 C63.1919633,11.8361842 62.7417967,10.6780263 62.7417967,9.27197368 L62.7417967,0.680131579 L64.8109411,0.680131579 Z" id="Fill-16"></path>
            </g>
            <path d="M184.110874,99.5726929 L177.945354,99.5726929 L176.341143,103 L174,103 L181.125662,88 L188,103 L185.621372,103 L184.110874,99.5726929 Z M183.224852,97.5705778 L181.088176,92.7715129 L178.850119,97.5705778 L183.224852,97.5705778 Z" id="Fill-19" fill="#1A1919"></path>
            <path d="M196.702828,96.0336015 L201,102 L198.437956,102 L194.472536,96.2688121 L194.094799,96.2688121 L194.094799,102 L192,102 L192,88 L194.455292,88 C196.28896,88 197.613504,88.3478467 198.428923,89.0427118 C199.327281,89.8162565 199.777281,90.8374349 199.777281,92.1070752 C199.777281,93.0984382 199.49562,93.9506626 198.932299,94.6645764 C198.368157,95.3776621 197.625821,95.8340038 196.702828,96.0336015 L196.702828,96.0336015 Z M194.094799,94.4285376 L194.760766,94.4285376 C196.744708,94.4285376 197.736679,93.6641032 197.736679,92.1344061 C197.736679,90.7016091 196.771807,89.9852106 194.841241,89.9852106 L194.094799,89.9852106 L194.094799,94.4285376 Z" id="Fill-20" fill="#1A1919"></path>
            <polygon id="Fill-22" fill="#1A1919" points="208.993309 89.9852106 208.993309 102 207.014448 102 207.014448 89.9852106 204 89.9852106 204 88 212 88 212 89.9852106"></polygon>
            <polygon id="Fill-23" fill="#1A1919" points="225 89.9852106 219.187822 89.9852106 219.187822 93.3493848 224.831046 93.3493848 224.831046 95.3354236 219.187822 95.3354236 219.187822 100.013133 225 100.013133 225 102 217 102 217 88 225 88"></polygon>
            <path d="M55.7781043,116.172043 L52.2554844,116.172043 L51.3385116,118 L50,118 L54.0726357,110 L58,118 L56.6413352,118 L55.7781043,116.172043 Z M55.2709142,115.104455 L54.050803,112.544547 L52.7719114,115.104455 L55.2709142,115.104455 Z" id="Fill-24" fill="#1A1919"></path>
            <path d="M65,118 L65,110 L66.6282322,110 C67.4087071,110 68.0253298,110.079992 68.4773087,110.239159 C68.9633245,110.394245 69.4034301,110.658708 69.7984169,111.031731 C70.5994723,111.784308 71,112.774411 71,114.000408 C71,115.230487 70.5828496,116.224671 69.7485488,116.984593 C69.3298153,117.364963 68.8912929,117.628609 68.43219,117.777982 C68.0031662,117.926538 67.3952507,118 66.6076517,118 L65,118 Z M66.1707124,116.865422 L66.6986807,116.865422 C67.2242744,116.865422 67.6612137,116.809101 68.0102902,116.694011 C68.3585752,116.574023 68.6736148,116.382206 68.9546174,116.119376 C69.5308707,115.576574 69.8189974,114.870523 69.8189974,114.000408 C69.8189974,113.122947 69.5348285,112.411183 68.9649077,111.865116 C68.4519789,111.379451 67.6968338,111.135394 66.6986807,111.135394 L66.1707124,111.135394 L66.1707124,116.865422 Z" id="Fill-25" fill="#1A1919"></path>
            <polygon id="Fill-27" fill="#1A1919" points="78.3032429 110 80.4847056 115.157445 82.6975621 110 84 110 80.4589466 118 77 110"></polygon>
            <g id="Group-32" transform="translate(90.000000, 110.000000)" fill="#1A1919">
                <path d="M0.79264,4.29799091 C0.79264,3.1689 1.19744,2.20017273 2.00704,1.38935455 C2.81184,0.579354545 3.77984,0.174354545 4.91104,0.174354545 C6.02864,0.174354545 6.98624,0.583445455 7.78464,1.39999091 C8.58784,2.21653636 8.98864,3.19835455 8.98864,4.34544545 C8.98864,5.49744545 8.58544,6.47517273 7.77984,7.27944545 C6.97104,8.08617273 5.99424,8.48871818 4.85024,8.48871818 C3.83824,8.48871818 2.92864,8.13117273 2.12304,7.41444545 C1.23664,6.62080909 0.79264,5.58171818 0.79264,4.29799091 M1.98624,4.31353636 C1.98624,5.20044545 2.27664,5.92862727 2.85984,6.49971818 C3.43824,7.07162727 4.10704,7.35717273 4.86544,7.35717273 C5.68784,7.35717273 6.38144,7.06671818 6.94704,6.48499091 C7.51264,5.8959 7.79584,5.17917273 7.79584,4.33399091 C7.79584,3.47899091 7.51584,2.76226364 6.95744,2.18462727 C6.40224,1.6029 5.71504,1.31244545 4.89584,1.31244545 C4.07984,1.31244545 3.39104,1.6029 2.82864,2.18462727 C2.26704,2.75899091 1.98624,3.46835455 1.98624,4.31353636" id="Fill-28"></path>
                <path d="M20.74888,4.16773636 L23.98808,4.16773636 L23.98808,4.43282727 C23.98808,5.03582727 23.91928,5.56928182 23.78008,6.03237273 C23.64488,6.46273636 23.41608,6.86364545 23.09448,7.23755455 C22.36728,8.07455455 21.44088,8.49428182 20.31688,8.49428182 C19.22008,8.49428182 18.28008,8.08928182 17.49928,7.27928182 C16.71608,6.46600909 16.32568,5.4891 16.32568,4.35019091 C16.32568,3.18673636 16.72328,2.20000909 17.51928,1.38919091 C18.31448,0.5751 19.28248,0.169281818 20.42408,0.169281818 C21.03608,0.169281818 21.60808,0.297736364 22.13928,0.553009091 C22.64728,0.809918182 23.14728,1.22473636 23.63768,1.7991 L22.79528,2.62546364 C22.15208,1.75000909 21.36728,1.31228182 20.44408,1.31228182 C19.61448,1.31228182 18.91848,1.60437273 18.35688,2.18937273 C17.79528,2.76455455 17.51368,3.48373636 17.51368,4.35019091 C17.51368,5.24282727 17.82728,5.97919091 18.45368,6.55682727 C19.03848,7.09355455 19.67368,7.36191818 20.35768,7.36191818 C20.93928,7.36191818 21.46328,7.16064545 21.92728,6.75973636 C22.39048,6.35473636 22.64968,5.86955455 22.70328,5.30582727 L20.74888,5.30582727 L20.74888,4.16773636 Z" id="Fill-30"></path>
            </g>
            <path d="M126.778104,116.172043 L123.255484,116.172043 L122.338512,118 L121,118 L125.072636,110 L129,118 L127.641335,118 L126.778104,116.172043 Z M126.270914,115.104455 L125.050803,112.544547 L123.771911,115.104455 L126.270914,115.104455 Z" id="Fill-33" fill="#1A1919"></path>
            <g id="Group-40" transform="translate(135.000000, 110.000000)" fill="#1A1919">
                <path d="M0.515045455,8.34332727 L0.515045455,0.324327273 L2.19804545,0.324327273 C3.00477273,0.324327273 3.64213636,0.404509091 4.10931818,0.564054545 C4.61168182,0.719509091 5.06659091,0.9846 5.47486364,1.35850909 C6.30286364,2.11287273 6.71686364,3.10532727 6.71686364,4.33423636 C6.71686364,5.56723636 6.28568182,6.56378182 5.42331818,7.32550909 C4.9905,7.70678182 4.53722727,7.97105455 4.06268182,8.12078182 C3.61922727,8.26969091 2.99086364,8.34332727 2.17677273,8.34332727 L0.515045455,8.34332727 Z M1.72513636,7.20605455 L2.27086364,7.20605455 C2.81413636,7.20605455 3.26577273,7.1496 3.62659091,7.03423636 C3.98659091,6.91396364 4.31222727,6.72169091 4.60268182,6.45823636 C5.19831818,5.91414545 5.49613636,5.20641818 5.49613636,4.33423636 C5.49613636,3.45469091 5.20240909,2.74123636 4.61331818,2.19387273 C4.08313636,1.70705455 3.30259091,1.46241818 2.27086364,1.46241818 L1.72513636,1.46241818 L1.72513636,7.20605455 Z" id="Fill-34"></path>
                <path d="M14.2204091,4.29799091 C14.2204091,3.1689 14.6344091,2.20017273 15.4624091,1.38935455 C16.2855,0.579354545 17.2755,0.174354545 18.4324091,0.174354545 C19.5754091,0.174354545 20.5547727,0.583445455 21.3713182,1.39999091 C22.1927727,2.21653636 22.6026818,3.19835455 22.6026818,4.34544545 C22.6026818,5.49744545 22.1903182,6.47517273 21.3664091,7.27944545 C20.5392273,8.08617273 19.5402273,8.48871818 18.3702273,8.48871818 C17.3352273,8.48871818 16.4049545,8.13117273 15.5810455,7.41444545 C14.6745,6.62080909 14.2204091,5.58171818 14.2204091,4.29799091 M15.4411364,4.31353636 C15.4411364,5.20044545 15.7381364,5.92862727 16.3345909,6.49971818 C16.9261364,7.07162727 17.6101364,7.35717273 18.3857727,7.35717273 C19.2268636,7.35717273 19.9362273,7.06671818 20.5146818,6.48499091 C21.0931364,5.8959 21.3827727,5.17917273 21.3827727,4.33399091 C21.3827727,3.47899091 21.0964091,2.76226364 20.5253182,2.18462727 C19.9575,1.6029 19.2546818,1.31244545 18.4168636,1.31244545 C17.5823182,1.31244545 16.8778636,1.6029 16.3026818,2.18462727 C15.7283182,2.75899091 15.4411364,3.46835455 15.4411364,4.31353636" id="Fill-36"></path>
                <path d="M35.0401091,1.51977273 L34.0582909,2.1015 C33.8750182,1.78240909 33.6999273,1.57459091 33.5338364,1.47804545 C33.3603818,1.36677273 33.1378364,1.31195455 32.8645636,1.31195455 C32.5282909,1.31195455 32.2492909,1.40604545 32.0275636,1.5975 C31.8066545,1.78404545 31.6953818,2.01968182 31.6953818,2.30359091 C31.6953818,2.69468182 31.9866545,3.00968182 32.5683818,3.24859091 L33.3677455,3.57668182 C34.0190182,3.83931818 34.4943818,4.16004545 34.7962909,4.53968182 C35.0965636,4.9185 35.2479273,5.38404545 35.2479273,5.93386364 C35.2479273,6.67186364 35.0016545,7.28059091 34.5107455,7.76168182 C34.0149273,8.24686364 33.4004727,8.48904545 32.6665636,8.48904545 C31.9711091,8.48904545 31.3959273,8.28286364 30.9418364,7.87131818 C30.4959273,7.45977273 30.2169273,6.87968182 30.1064727,6.13186364 L31.3321091,5.86186364 C31.3869273,6.33231818 31.4842909,6.65713636 31.6225636,6.83795455 C31.8721091,7.18404545 32.2353818,7.3575 32.7132,7.3575 C33.0903818,7.3575 33.4045636,7.23068182 33.6541091,6.97786364 C33.9028364,6.72422727 34.0280182,6.40513636 34.0280182,6.0165 C34.0280182,5.86186364 34.0051091,5.71786364 33.9625636,5.58859091 C33.9192,5.4585 33.8521091,5.33904545 33.7604727,5.23022727 C33.6680182,5.12140909 33.5502,5.01913636 33.4045636,4.92340909 C33.2589273,4.8285 33.0854727,4.7385 32.8850182,4.65095455 L32.1110182,4.32940909 C31.0130182,3.8655 30.4640182,3.18640909 30.4640182,2.29295455 C30.4640182,1.69077273 30.6947455,1.18759091 31.1553818,0.781772727 C31.6152,0.3735 32.1887455,0.169772727 32.8743818,0.169772727 C33.7989273,0.169772727 34.5205636,0.618954545 35.0401091,1.51977273" id="Fill-38"></path>
            </g>
            <polygon id="Fill-41" fill="#1A1919" points="112.937272 36 104 41.3656353 104.01071 50 113 44.7081492"></polygon>
            <path d="M80,0 L80,64 L137,31.9995915 L80,0 Z M89.3913043,13.8960644 L120.900385,31.9464876 L89.3913043,49.9952768 L89.3913043,13.8960644 Z" id="Fill-42" fill="#1A1919"></path>
            <path d="M104,0 L104,64 L161,31.9995915 L104,0 Z M113.389517,13.8960644 L144.898967,31.9464876 L113.389517,49.9952768 L113.389517,13.8960644 Z" id="Fill-43" fill="#B4A07D"></path>
            <polygon id="Fill-44" fill="#1A1919" points="89 72.5671919 80 78 80 58 89 58"></polygon>
            <polygon id="Fill-45" fill="#1A1919" points="113.531341 36 103 42.1265768 103 51 115 44.1581666"></polygon>
            <polygon id="Fill-46" points="105.73923 48.908538 104 49.844935 104 55 113 51.7642863 113 49.2779905 113 45"></polygon>
            <path d="M105,50 L112,45 L105,50 Z" id="Fill-48"></path>
        </g>
    </g>
</svg>